# xmcd CD database file
#
# Track frame offsets:
#	150
#	10752
#	22867
#	33722
#	46670
#	60722
#	75922
#	89447
#	104102
#	117625
#	130645
#	143005
#	155020
#	166847
#	179710
#	192750
#	206540
#	220790
#	246022
#	259525
#
# Disc length: 3807 seconds
#
# Revision: 0
# Processed by: cddbd v1.5.2PL0 Copyright (c) Steve Scherf et al.
# Submitted via: CDex 1.74
#
DISCID=0b0edd14
DTITLE=Fats Navarro - Dameronia
DYEAR=1948
DGENRE=Jazz
TTITLE0=Fat Girl
TTITLE1=Ices Freezes Red
TTITLE2=EB POB
TTITLE3=Goin' to Mintons
TTITLE4=Our Delight
TTITLE5=The Squirrel
TTITLE6=The Chase
TTITLE7=Dameronia
TTITLE8=A Bebop Carol
TTITLE9=The Tadd Walk
TTITLE10=Nostalgia
TTITLE11=Barry's Bop
TTITLE12=Bebop Romp
TTITLE13=Fats Blows
TTITLE14=Lady Btrd
TTITLE15=Jahbero
TTITLE16=Symphonette
TTITLE17=Double Talk
TTITLE18=Fat's Flat
TTITLE19=Good Bait (No1)
EXTD=YEAR: 1948
EXTT0=
EXTT1=
EXTT2=
EXTT3=
EXTT4=
EXTT5=
EXTT6=
EXTT7=
EXTT8=
EXTT9=
EXTT10=
EXTT11=
EXTT12=
EXTT13=
EXTT14=
EXTT15=
EXTT16=
EXTT17=
EXTT18=
EXTT19=
PLAYORDER=
